<svg width="32" height="28" viewBox="0 0 32 28" fill="none" xmlns="http://www.w3.org/2000/svg">
<g clip-path="url(#clip0_1611_1348)">
<path opacity="0.3" d="M10.6667 18.6667H26.6667V4.66669H10.6667V18.6667ZM16.0001 6.41669L24.0001 11.6667L16.0001 16.9167V6.41669Z" fill="#323232"/>
<path d="M5.33341 6.99998H2.66675V23.3333C2.66675 24.6166 3.86675 25.6666 5.33341 25.6666H24.0001V23.3333H5.33341V6.99998ZM26.6667 2.33331H10.6667C9.20008 2.33331 8.00008 3.38331 8.00008 4.66665V18.6666C8.00008 19.95 9.20008 21 10.6667 21H26.6667C28.1334 21 29.3334 19.95 29.3334 18.6666V4.66665C29.3334 3.38331 28.1334 2.33331 26.6667 2.33331ZM26.6667 18.6666H10.6667V4.66665H26.6667V18.6666ZM16.0001 6.41665V16.9166L24.0001 11.6666L16.0001 6.41665Z" fill="#323232"/>
</g>
<defs>
<clipPath id="clip0_1611_1348">
<rect width="32" height="28" fill="white"/>
</clipPath>
</defs>
</svg>
